<mxfile host="app.diagrams.net" modified="2021-02-12T15:34:39.255Z" agent="5.0 (Windows)" etag="MKcM0M3X7GkCyWrCSUwS" version="14.3.1" type="github">
  <diagram id="R2lEEEUBdFMjLlhIrx00" name="Page-1">
    <mxGraphModel dx="1102" dy="611" grid="1" gridSize="10" guides="1" tooltips="1" connect="1" arrows="1" fold="1" page="1" pageScale="1" pageWidth="850" pageHeight="1100" math="0" shadow="0" extFonts="Permanent Marker^https://fonts.googleapis.com/css?family=Permanent+Marker">
      <root>
        <mxCell id="0" />
        <mxCell id="1" parent="0" />
        <mxCell id="G8C2HKvousf60vdH2QP9-5" value="Documents" style="shape=table;startSize=30;container=1;collapsible=1;childLayout=tableLayout;fixedRows=1;rowLines=0;fontStyle=1;align=center;resizeLast=1;" vertex="1" parent="1">
          <mxGeometry x="490" y="510" width="250" height="220" as="geometry" />
        </mxCell>
        <mxCell id="G8C2HKvousf60vdH2QP9-6" value="" style="shape=partialRectangle;collapsible=0;dropTarget=0;pointerEvents=0;fillColor=none;points=[[0,0.5],[1,0.5]];portConstraint=eastwest;top=0;left=0;right=0;bottom=1;" vertex="1" parent="G8C2HKvousf60vdH2QP9-5">
          <mxGeometry y="30" width="250" height="30" as="geometry" />
        </mxCell>
        <mxCell id="G8C2HKvousf60vdH2QP9-7" value="PK" style="shape=partialRectangle;overflow=hidden;connectable=0;fillColor=none;top=0;left=0;bottom=0;right=0;fontStyle=1;" vertex="1" parent="G8C2HKvousf60vdH2QP9-6">
          <mxGeometry width="30" height="30" as="geometry" />
        </mxCell>
        <mxCell id="G8C2HKvousf60vdH2QP9-8" value="document_id" style="shape=partialRectangle;overflow=hidden;connectable=0;fillColor=none;top=0;left=0;bottom=0;right=0;align=left;spacingLeft=6;fontStyle=5;" vertex="1" parent="G8C2HKvousf60vdH2QP9-6">
          <mxGeometry x="30" width="220" height="30" as="geometry" />
        </mxCell>
        <mxCell id="G8C2HKvousf60vdH2QP9-9" value="" style="shape=partialRectangle;collapsible=0;dropTarget=0;pointerEvents=0;fillColor=none;points=[[0,0.5],[1,0.5]];portConstraint=eastwest;top=0;left=0;right=0;bottom=0;" vertex="1" parent="G8C2HKvousf60vdH2QP9-5">
          <mxGeometry y="60" width="250" height="30" as="geometry" />
        </mxCell>
        <mxCell id="G8C2HKvousf60vdH2QP9-10" value="" style="shape=partialRectangle;overflow=hidden;connectable=0;fillColor=none;top=0;left=0;bottom=0;right=0;" vertex="1" parent="G8C2HKvousf60vdH2QP9-9">
          <mxGeometry width="30" height="30" as="geometry" />
        </mxCell>
        <mxCell id="G8C2HKvousf60vdH2QP9-11" value="document_title" style="shape=partialRectangle;overflow=hidden;connectable=0;fillColor=none;top=0;left=0;bottom=0;right=0;align=left;spacingLeft=6;" vertex="1" parent="G8C2HKvousf60vdH2QP9-9">
          <mxGeometry x="30" width="220" height="30" as="geometry" />
        </mxCell>
        <mxCell id="G8C2HKvousf60vdH2QP9-12" value="" style="shape=partialRectangle;collapsible=0;dropTarget=0;pointerEvents=0;fillColor=none;points=[[0,0.5],[1,0.5]];portConstraint=eastwest;top=0;left=0;right=0;bottom=0;" vertex="1" parent="G8C2HKvousf60vdH2QP9-5">
          <mxGeometry y="90" width="250" height="30" as="geometry" />
        </mxCell>
        <mxCell id="G8C2HKvousf60vdH2QP9-13" value="" style="shape=partialRectangle;overflow=hidden;connectable=0;fillColor=none;top=0;left=0;bottom=0;right=0;" vertex="1" parent="G8C2HKvousf60vdH2QP9-12">
          <mxGeometry width="30" height="30" as="geometry" />
        </mxCell>
        <mxCell id="G8C2HKvousf60vdH2QP9-14" value="document_content" style="shape=partialRectangle;overflow=hidden;connectable=0;fillColor=none;top=0;left=0;bottom=0;right=0;align=left;spacingLeft=6;" vertex="1" parent="G8C2HKvousf60vdH2QP9-12">
          <mxGeometry x="30" width="220" height="30" as="geometry" />
        </mxCell>
        <mxCell id="G8C2HKvousf60vdH2QP9-60" value="" style="shape=partialRectangle;collapsible=0;dropTarget=0;pointerEvents=0;fillColor=none;points=[[0,0.5],[1,0.5]];portConstraint=eastwest;top=0;left=0;right=0;bottom=0;" vertex="1" parent="G8C2HKvousf60vdH2QP9-5">
          <mxGeometry y="120" width="250" height="30" as="geometry" />
        </mxCell>
        <mxCell id="G8C2HKvousf60vdH2QP9-61" value="" style="shape=partialRectangle;overflow=hidden;connectable=0;fillColor=none;top=0;left=0;bottom=0;right=0;" vertex="1" parent="G8C2HKvousf60vdH2QP9-60">
          <mxGeometry width="30" height="30" as="geometry" />
        </mxCell>
        <mxCell id="G8C2HKvousf60vdH2QP9-62" value="last_updated" style="shape=partialRectangle;overflow=hidden;connectable=0;fillColor=none;top=0;left=0;bottom=0;right=0;align=left;spacingLeft=6;" vertex="1" parent="G8C2HKvousf60vdH2QP9-60">
          <mxGeometry x="30" width="220" height="30" as="geometry" />
        </mxCell>
        <mxCell id="G8C2HKvousf60vdH2QP9-63" value="" style="shape=partialRectangle;collapsible=0;dropTarget=0;pointerEvents=0;fillColor=none;points=[[0,0.5],[1,0.5]];portConstraint=eastwest;top=0;left=0;right=0;bottom=0;" vertex="1" parent="G8C2HKvousf60vdH2QP9-5">
          <mxGeometry y="150" width="250" height="30" as="geometry" />
        </mxCell>
        <mxCell id="G8C2HKvousf60vdH2QP9-64" value="" style="shape=partialRectangle;overflow=hidden;connectable=0;fillColor=none;top=0;left=0;bottom=0;right=0;" vertex="1" parent="G8C2HKvousf60vdH2QP9-63">
          <mxGeometry width="30" height="30" as="geometry" />
        </mxCell>
        <mxCell id="G8C2HKvousf60vdH2QP9-65" value="view" style="shape=partialRectangle;overflow=hidden;connectable=0;fillColor=none;top=0;left=0;bottom=0;right=0;align=left;spacingLeft=6;" vertex="1" parent="G8C2HKvousf60vdH2QP9-63">
          <mxGeometry x="30" width="220" height="30" as="geometry" />
        </mxCell>
        <mxCell id="G8C2HKvousf60vdH2QP9-66" value="" style="shape=partialRectangle;collapsible=0;dropTarget=0;pointerEvents=0;fillColor=none;points=[[0,0.5],[1,0.5]];portConstraint=eastwest;top=0;left=0;right=0;bottom=0;" vertex="1" parent="G8C2HKvousf60vdH2QP9-5">
          <mxGeometry y="180" width="250" height="30" as="geometry" />
        </mxCell>
        <mxCell id="G8C2HKvousf60vdH2QP9-67" value="FK" style="shape=partialRectangle;overflow=hidden;connectable=0;fillColor=none;top=0;left=0;bottom=0;right=0;" vertex="1" parent="G8C2HKvousf60vdH2QP9-66">
          <mxGeometry width="30" height="30" as="geometry" />
        </mxCell>
        <mxCell id="G8C2HKvousf60vdH2QP9-68" value="creator" style="shape=partialRectangle;overflow=hidden;connectable=0;fillColor=none;top=0;left=0;bottom=0;right=0;align=left;spacingLeft=6;" vertex="1" parent="G8C2HKvousf60vdH2QP9-66">
          <mxGeometry x="30" width="220" height="30" as="geometry" />
        </mxCell>
        <mxCell id="G8C2HKvousf60vdH2QP9-47" value="Employee" style="shape=table;startSize=30;container=1;collapsible=1;childLayout=tableLayout;fixedRows=1;rowLines=0;fontStyle=1;align=center;resizeLast=1;sketch=0;" vertex="1" parent="1">
          <mxGeometry x="120" y="280" width="180" height="190" as="geometry" />
        </mxCell>
        <mxCell id="G8C2HKvousf60vdH2QP9-48" value="" style="shape=partialRectangle;collapsible=0;dropTarget=0;pointerEvents=0;fillColor=none;top=0;left=0;bottom=1;right=0;points=[[0,0.5],[1,0.5]];portConstraint=eastwest;" vertex="1" parent="G8C2HKvousf60vdH2QP9-47">
          <mxGeometry y="30" width="180" height="30" as="geometry" />
        </mxCell>
        <mxCell id="G8C2HKvousf60vdH2QP9-49" value="PK" style="shape=partialRectangle;connectable=0;fillColor=none;top=0;left=0;bottom=0;right=0;fontStyle=1;overflow=hidden;" vertex="1" parent="G8C2HKvousf60vdH2QP9-48">
          <mxGeometry width="30" height="30" as="geometry" />
        </mxCell>
        <mxCell id="G8C2HKvousf60vdH2QP9-50" value="emp_id" style="shape=partialRectangle;connectable=0;fillColor=none;top=0;left=0;bottom=0;right=0;align=left;spacingLeft=6;fontStyle=5;overflow=hidden;" vertex="1" parent="G8C2HKvousf60vdH2QP9-48">
          <mxGeometry x="30" width="150" height="30" as="geometry" />
        </mxCell>
        <mxCell id="G8C2HKvousf60vdH2QP9-51" value="" style="shape=partialRectangle;collapsible=0;dropTarget=0;pointerEvents=0;fillColor=none;top=0;left=0;bottom=0;right=0;points=[[0,0.5],[1,0.5]];portConstraint=eastwest;" vertex="1" parent="G8C2HKvousf60vdH2QP9-47">
          <mxGeometry y="60" width="180" height="30" as="geometry" />
        </mxCell>
        <mxCell id="G8C2HKvousf60vdH2QP9-52" value="" style="shape=partialRectangle;connectable=0;fillColor=none;top=0;left=0;bottom=0;right=0;editable=1;overflow=hidden;" vertex="1" parent="G8C2HKvousf60vdH2QP9-51">
          <mxGeometry width="30" height="30" as="geometry" />
        </mxCell>
        <mxCell id="G8C2HKvousf60vdH2QP9-53" value="first_name" style="shape=partialRectangle;connectable=0;fillColor=none;top=0;left=0;bottom=0;right=0;align=left;spacingLeft=6;overflow=hidden;" vertex="1" parent="G8C2HKvousf60vdH2QP9-51">
          <mxGeometry x="30" width="150" height="30" as="geometry" />
        </mxCell>
        <mxCell id="G8C2HKvousf60vdH2QP9-54" value="" style="shape=partialRectangle;collapsible=0;dropTarget=0;pointerEvents=0;fillColor=none;top=0;left=0;bottom=0;right=0;points=[[0,0.5],[1,0.5]];portConstraint=eastwest;" vertex="1" parent="G8C2HKvousf60vdH2QP9-47">
          <mxGeometry y="90" width="180" height="30" as="geometry" />
        </mxCell>
        <mxCell id="G8C2HKvousf60vdH2QP9-55" value="" style="shape=partialRectangle;connectable=0;fillColor=none;top=0;left=0;bottom=0;right=0;editable=1;overflow=hidden;" vertex="1" parent="G8C2HKvousf60vdH2QP9-54">
          <mxGeometry width="30" height="30" as="geometry" />
        </mxCell>
        <mxCell id="G8C2HKvousf60vdH2QP9-56" value="last_name" style="shape=partialRectangle;connectable=0;fillColor=none;top=0;left=0;bottom=0;right=0;align=left;spacingLeft=6;overflow=hidden;" vertex="1" parent="G8C2HKvousf60vdH2QP9-54">
          <mxGeometry x="30" width="150" height="30" as="geometry" />
        </mxCell>
        <mxCell id="G8C2HKvousf60vdH2QP9-57" value="" style="shape=partialRectangle;collapsible=0;dropTarget=0;pointerEvents=0;fillColor=none;top=0;left=0;bottom=0;right=0;points=[[0,0.5],[1,0.5]];portConstraint=eastwest;" vertex="1" parent="G8C2HKvousf60vdH2QP9-47">
          <mxGeometry y="120" width="180" height="30" as="geometry" />
        </mxCell>
        <mxCell id="G8C2HKvousf60vdH2QP9-58" value="" style="shape=partialRectangle;connectable=0;fillColor=none;top=0;left=0;bottom=0;right=0;editable=1;overflow=hidden;" vertex="1" parent="G8C2HKvousf60vdH2QP9-57">
          <mxGeometry width="30" height="30" as="geometry" />
        </mxCell>
        <mxCell id="G8C2HKvousf60vdH2QP9-59" value="email" style="shape=partialRectangle;connectable=0;fillColor=none;top=0;left=0;bottom=0;right=0;align=left;spacingLeft=6;overflow=hidden;" vertex="1" parent="G8C2HKvousf60vdH2QP9-57">
          <mxGeometry x="30" width="150" height="30" as="geometry" />
        </mxCell>
        <mxCell id="G8C2HKvousf60vdH2QP9-75" value="" style="shape=partialRectangle;collapsible=0;dropTarget=0;pointerEvents=0;fillColor=none;top=0;left=0;bottom=0;right=0;points=[[0,0.5],[1,0.5]];portConstraint=eastwest;" vertex="1" parent="G8C2HKvousf60vdH2QP9-47">
          <mxGeometry y="150" width="180" height="30" as="geometry" />
        </mxCell>
        <mxCell id="G8C2HKvousf60vdH2QP9-76" value="FK" style="shape=partialRectangle;connectable=0;fillColor=none;top=0;left=0;bottom=0;right=0;editable=1;overflow=hidden;" vertex="1" parent="G8C2HKvousf60vdH2QP9-75">
          <mxGeometry width="30" height="30" as="geometry" />
        </mxCell>
        <mxCell id="G8C2HKvousf60vdH2QP9-77" value="dept_id" style="shape=partialRectangle;connectable=0;fillColor=none;top=0;left=0;bottom=0;right=0;align=left;spacingLeft=6;overflow=hidden;" vertex="1" parent="G8C2HKvousf60vdH2QP9-75">
          <mxGeometry x="30" width="150" height="30" as="geometry" />
        </mxCell>
        <mxCell id="G8C2HKvousf60vdH2QP9-78" value="Departments" style="shape=table;startSize=30;container=1;collapsible=1;childLayout=tableLayout;fixedRows=1;rowLines=0;fontStyle=1;align=center;resizeLast=1;sketch=0;" vertex="1" parent="1">
          <mxGeometry x="120" y="570" width="180" height="160" as="geometry" />
        </mxCell>
        <mxCell id="G8C2HKvousf60vdH2QP9-79" value="" style="shape=partialRectangle;collapsible=0;dropTarget=0;pointerEvents=0;fillColor=none;top=0;left=0;bottom=1;right=0;points=[[0,0.5],[1,0.5]];portConstraint=eastwest;" vertex="1" parent="G8C2HKvousf60vdH2QP9-78">
          <mxGeometry y="30" width="180" height="30" as="geometry" />
        </mxCell>
        <mxCell id="G8C2HKvousf60vdH2QP9-80" value="PK" style="shape=partialRectangle;connectable=0;fillColor=none;top=0;left=0;bottom=0;right=0;fontStyle=1;overflow=hidden;" vertex="1" parent="G8C2HKvousf60vdH2QP9-79">
          <mxGeometry width="30" height="30" as="geometry" />
        </mxCell>
        <mxCell id="G8C2HKvousf60vdH2QP9-81" value="dept_id" style="shape=partialRectangle;connectable=0;fillColor=none;top=0;left=0;bottom=0;right=0;align=left;spacingLeft=6;fontStyle=5;overflow=hidden;" vertex="1" parent="G8C2HKvousf60vdH2QP9-79">
          <mxGeometry x="30" width="150" height="30" as="geometry" />
        </mxCell>
        <mxCell id="G8C2HKvousf60vdH2QP9-82" value="" style="shape=partialRectangle;collapsible=0;dropTarget=0;pointerEvents=0;fillColor=none;top=0;left=0;bottom=0;right=0;points=[[0,0.5],[1,0.5]];portConstraint=eastwest;" vertex="1" parent="G8C2HKvousf60vdH2QP9-78">
          <mxGeometry y="60" width="180" height="30" as="geometry" />
        </mxCell>
        <mxCell id="G8C2HKvousf60vdH2QP9-83" value="" style="shape=partialRectangle;connectable=0;fillColor=none;top=0;left=0;bottom=0;right=0;editable=1;overflow=hidden;" vertex="1" parent="G8C2HKvousf60vdH2QP9-82">
          <mxGeometry width="30" height="30" as="geometry" />
        </mxCell>
        <mxCell id="G8C2HKvousf60vdH2QP9-84" value="name" style="shape=partialRectangle;connectable=0;fillColor=none;top=0;left=0;bottom=0;right=0;align=left;spacingLeft=6;overflow=hidden;" vertex="1" parent="G8C2HKvousf60vdH2QP9-82">
          <mxGeometry x="30" width="150" height="30" as="geometry" />
        </mxCell>
        <mxCell id="G8C2HKvousf60vdH2QP9-85" value="" style="shape=partialRectangle;collapsible=0;dropTarget=0;pointerEvents=0;fillColor=none;top=0;left=0;bottom=0;right=0;points=[[0,0.5],[1,0.5]];portConstraint=eastwest;" vertex="1" parent="G8C2HKvousf60vdH2QP9-78">
          <mxGeometry y="90" width="180" height="30" as="geometry" />
        </mxCell>
        <mxCell id="G8C2HKvousf60vdH2QP9-86" value="" style="shape=partialRectangle;connectable=0;fillColor=none;top=0;left=0;bottom=0;right=0;editable=1;overflow=hidden;" vertex="1" parent="G8C2HKvousf60vdH2QP9-85">
          <mxGeometry width="30" height="30" as="geometry" />
        </mxCell>
        <mxCell id="G8C2HKvousf60vdH2QP9-87" value="description" style="shape=partialRectangle;connectable=0;fillColor=none;top=0;left=0;bottom=0;right=0;align=left;spacingLeft=6;overflow=hidden;" vertex="1" parent="G8C2HKvousf60vdH2QP9-85">
          <mxGeometry x="30" width="150" height="30" as="geometry" />
        </mxCell>
        <mxCell id="G8C2HKvousf60vdH2QP9-88" value="" style="shape=partialRectangle;collapsible=0;dropTarget=0;pointerEvents=0;fillColor=none;top=0;left=0;bottom=0;right=0;points=[[0,0.5],[1,0.5]];portConstraint=eastwest;" vertex="1" parent="G8C2HKvousf60vdH2QP9-78">
          <mxGeometry y="120" width="180" height="30" as="geometry" />
        </mxCell>
        <mxCell id="G8C2HKvousf60vdH2QP9-89" value="" style="shape=partialRectangle;connectable=0;fillColor=none;top=0;left=0;bottom=0;right=0;editable=1;overflow=hidden;" vertex="1" parent="G8C2HKvousf60vdH2QP9-88">
          <mxGeometry width="30" height="30" as="geometry" />
        </mxCell>
        <mxCell id="G8C2HKvousf60vdH2QP9-90" value="phone" style="shape=partialRectangle;connectable=0;fillColor=none;top=0;left=0;bottom=0;right=0;align=left;spacingLeft=6;overflow=hidden;" vertex="1" parent="G8C2HKvousf60vdH2QP9-88">
          <mxGeometry x="30" width="150" height="30" as="geometry" />
        </mxCell>
        <mxCell id="G8C2HKvousf60vdH2QP9-91" value="" style="edgeStyle=entityRelationEdgeStyle;fontSize=12;html=1;endArrow=ERzeroToMany;startArrow=ERmandOne;endSize=10;startSize=10;" edge="1" parent="1" source="G8C2HKvousf60vdH2QP9-79" target="G8C2HKvousf60vdH2QP9-75">
          <mxGeometry width="100" height="100" relative="1" as="geometry">
            <mxPoint x="710" y="640" as="sourcePoint" />
            <mxPoint x="810" y="540" as="targetPoint" />
          </mxGeometry>
        </mxCell>
        <mxCell id="G8C2HKvousf60vdH2QP9-93" value="" style="edgeStyle=entityRelationEdgeStyle;fontSize=12;html=1;endArrow=ERzeroToMany;startArrow=ERmandOne;endSize=10;startSize=10;" edge="1" parent="1" source="G8C2HKvousf60vdH2QP9-48" target="G8C2HKvousf60vdH2QP9-66">
          <mxGeometry width="100" height="100" relative="1" as="geometry">
            <mxPoint x="160" y="740" as="sourcePoint" />
            <mxPoint x="260" y="640" as="targetPoint" />
          </mxGeometry>
        </mxCell>
        <mxCell id="G8C2HKvousf60vdH2QP9-94" value="Suggestions" style="shape=table;startSize=30;container=1;collapsible=1;childLayout=tableLayout;fixedRows=1;rowLines=0;fontStyle=1;align=center;resizeLast=1;sketch=0;" vertex="1" parent="1">
          <mxGeometry x="800" y="280" width="180" height="160" as="geometry" />
        </mxCell>
        <mxCell id="G8C2HKvousf60vdH2QP9-95" value="" style="shape=partialRectangle;collapsible=0;dropTarget=0;pointerEvents=0;fillColor=none;top=0;left=0;bottom=1;right=0;points=[[0,0.5],[1,0.5]];portConstraint=eastwest;" vertex="1" parent="G8C2HKvousf60vdH2QP9-94">
          <mxGeometry y="30" width="180" height="30" as="geometry" />
        </mxCell>
        <mxCell id="G8C2HKvousf60vdH2QP9-96" value="PK" style="shape=partialRectangle;connectable=0;fillColor=none;top=0;left=0;bottom=0;right=0;fontStyle=1;overflow=hidden;" vertex="1" parent="G8C2HKvousf60vdH2QP9-95">
          <mxGeometry width="30" height="30" as="geometry" />
        </mxCell>
        <mxCell id="G8C2HKvousf60vdH2QP9-97" value="suggestion_id" style="shape=partialRectangle;connectable=0;fillColor=none;top=0;left=0;bottom=0;right=0;align=left;spacingLeft=6;fontStyle=5;overflow=hidden;" vertex="1" parent="G8C2HKvousf60vdH2QP9-95">
          <mxGeometry x="30" width="150" height="30" as="geometry" />
        </mxCell>
        <mxCell id="G8C2HKvousf60vdH2QP9-98" value="" style="shape=partialRectangle;collapsible=0;dropTarget=0;pointerEvents=0;fillColor=none;top=0;left=0;bottom=0;right=0;points=[[0,0.5],[1,0.5]];portConstraint=eastwest;" vertex="1" parent="G8C2HKvousf60vdH2QP9-94">
          <mxGeometry y="60" width="180" height="30" as="geometry" />
        </mxCell>
        <mxCell id="G8C2HKvousf60vdH2QP9-99" value="" style="shape=partialRectangle;connectable=0;fillColor=none;top=0;left=0;bottom=0;right=0;editable=1;overflow=hidden;" vertex="1" parent="G8C2HKvousf60vdH2QP9-98">
          <mxGeometry width="30" height="30" as="geometry" />
        </mxCell>
        <mxCell id="G8C2HKvousf60vdH2QP9-100" value="content" style="shape=partialRectangle;connectable=0;fillColor=none;top=0;left=0;bottom=0;right=0;align=left;spacingLeft=6;overflow=hidden;" vertex="1" parent="G8C2HKvousf60vdH2QP9-98">
          <mxGeometry x="30" width="150" height="30" as="geometry" />
        </mxCell>
        <mxCell id="G8C2HKvousf60vdH2QP9-101" value="" style="shape=partialRectangle;collapsible=0;dropTarget=0;pointerEvents=0;fillColor=none;top=0;left=0;bottom=0;right=0;points=[[0,0.5],[1,0.5]];portConstraint=eastwest;" vertex="1" parent="G8C2HKvousf60vdH2QP9-94">
          <mxGeometry y="90" width="180" height="30" as="geometry" />
        </mxCell>
        <mxCell id="G8C2HKvousf60vdH2QP9-102" value="" style="shape=partialRectangle;connectable=0;fillColor=none;top=0;left=0;bottom=0;right=0;editable=1;overflow=hidden;" vertex="1" parent="G8C2HKvousf60vdH2QP9-101">
          <mxGeometry width="30" height="30" as="geometry" />
        </mxCell>
        <mxCell id="G8C2HKvousf60vdH2QP9-103" value="count" style="shape=partialRectangle;connectable=0;fillColor=none;top=0;left=0;bottom=0;right=0;align=left;spacingLeft=6;overflow=hidden;" vertex="1" parent="G8C2HKvousf60vdH2QP9-101">
          <mxGeometry x="30" width="150" height="30" as="geometry" />
        </mxCell>
        <mxCell id="G8C2HKvousf60vdH2QP9-104" value="" style="shape=partialRectangle;collapsible=0;dropTarget=0;pointerEvents=0;fillColor=none;top=0;left=0;bottom=0;right=0;points=[[0,0.5],[1,0.5]];portConstraint=eastwest;" vertex="1" parent="G8C2HKvousf60vdH2QP9-94">
          <mxGeometry y="120" width="180" height="30" as="geometry" />
        </mxCell>
        <mxCell id="G8C2HKvousf60vdH2QP9-105" value="" style="shape=partialRectangle;connectable=0;fillColor=none;top=0;left=0;bottom=0;right=0;editable=1;overflow=hidden;" vertex="1" parent="G8C2HKvousf60vdH2QP9-104">
          <mxGeometry width="30" height="30" as="geometry" />
        </mxCell>
        <mxCell id="G8C2HKvousf60vdH2QP9-106" value="last_searched" style="shape=partialRectangle;connectable=0;fillColor=none;top=0;left=0;bottom=0;right=0;align=left;spacingLeft=6;overflow=hidden;" vertex="1" parent="G8C2HKvousf60vdH2QP9-104">
          <mxGeometry x="30" width="150" height="30" as="geometry" />
        </mxCell>
        <mxCell id="G8C2HKvousf60vdH2QP9-107" value="VIews" style="shape=table;startSize=30;container=1;collapsible=1;childLayout=tableLayout;fixedRows=1;rowLines=0;fontStyle=1;align=center;resizeLast=1;sketch=0;" vertex="1" parent="1">
          <mxGeometry x="475" y="280" width="180" height="190" as="geometry" />
        </mxCell>
        <mxCell id="G8C2HKvousf60vdH2QP9-108" value="" style="shape=partialRectangle;collapsible=0;dropTarget=0;pointerEvents=0;fillColor=none;top=0;left=0;bottom=1;right=0;points=[[0,0.5],[1,0.5]];portConstraint=eastwest;" vertex="1" parent="G8C2HKvousf60vdH2QP9-107">
          <mxGeometry y="30" width="180" height="30" as="geometry" />
        </mxCell>
        <mxCell id="G8C2HKvousf60vdH2QP9-109" value="PK" style="shape=partialRectangle;connectable=0;fillColor=none;top=0;left=0;bottom=0;right=0;fontStyle=1;overflow=hidden;" vertex="1" parent="G8C2HKvousf60vdH2QP9-108">
          <mxGeometry width="30" height="30" as="geometry" />
        </mxCell>
        <mxCell id="G8C2HKvousf60vdH2QP9-110" value="view_id" style="shape=partialRectangle;connectable=0;fillColor=none;top=0;left=0;bottom=0;right=0;align=left;spacingLeft=6;fontStyle=5;overflow=hidden;" vertex="1" parent="G8C2HKvousf60vdH2QP9-108">
          <mxGeometry x="30" width="150" height="30" as="geometry" />
        </mxCell>
        <mxCell id="G8C2HKvousf60vdH2QP9-111" value="" style="shape=partialRectangle;collapsible=0;dropTarget=0;pointerEvents=0;fillColor=none;top=0;left=0;bottom=0;right=0;points=[[0,0.5],[1,0.5]];portConstraint=eastwest;" vertex="1" parent="G8C2HKvousf60vdH2QP9-107">
          <mxGeometry y="60" width="180" height="30" as="geometry" />
        </mxCell>
        <mxCell id="G8C2HKvousf60vdH2QP9-112" value="FK1" style="shape=partialRectangle;connectable=0;fillColor=none;top=0;left=0;bottom=0;right=0;editable=1;overflow=hidden;" vertex="1" parent="G8C2HKvousf60vdH2QP9-111">
          <mxGeometry width="30" height="30" as="geometry" />
        </mxCell>
        <mxCell id="G8C2HKvousf60vdH2QP9-113" value="emp_id" style="shape=partialRectangle;connectable=0;fillColor=none;top=0;left=0;bottom=0;right=0;align=left;spacingLeft=6;overflow=hidden;" vertex="1" parent="G8C2HKvousf60vdH2QP9-111">
          <mxGeometry x="30" width="150" height="30" as="geometry" />
        </mxCell>
        <mxCell id="G8C2HKvousf60vdH2QP9-114" value="" style="shape=partialRectangle;collapsible=0;dropTarget=0;pointerEvents=0;fillColor=none;top=0;left=0;bottom=0;right=0;points=[[0,0.5],[1,0.5]];portConstraint=eastwest;" vertex="1" parent="G8C2HKvousf60vdH2QP9-107">
          <mxGeometry y="90" width="180" height="30" as="geometry" />
        </mxCell>
        <mxCell id="G8C2HKvousf60vdH2QP9-115" value="FK2" style="shape=partialRectangle;connectable=0;fillColor=none;top=0;left=0;bottom=0;right=0;editable=1;overflow=hidden;" vertex="1" parent="G8C2HKvousf60vdH2QP9-114">
          <mxGeometry width="30" height="30" as="geometry" />
        </mxCell>
        <mxCell id="G8C2HKvousf60vdH2QP9-116" value="document_id" style="shape=partialRectangle;connectable=0;fillColor=none;top=0;left=0;bottom=0;right=0;align=left;spacingLeft=6;overflow=hidden;" vertex="1" parent="G8C2HKvousf60vdH2QP9-114">
          <mxGeometry x="30" width="150" height="30" as="geometry" />
        </mxCell>
        <mxCell id="G8C2HKvousf60vdH2QP9-117" value="" style="shape=partialRectangle;collapsible=0;dropTarget=0;pointerEvents=0;fillColor=none;top=0;left=0;bottom=0;right=0;points=[[0,0.5],[1,0.5]];portConstraint=eastwest;" vertex="1" parent="G8C2HKvousf60vdH2QP9-107">
          <mxGeometry y="120" width="180" height="30" as="geometry" />
        </mxCell>
        <mxCell id="G8C2HKvousf60vdH2QP9-118" value="" style="shape=partialRectangle;connectable=0;fillColor=none;top=0;left=0;bottom=0;right=0;editable=1;overflow=hidden;" vertex="1" parent="G8C2HKvousf60vdH2QP9-117">
          <mxGeometry width="30" height="30" as="geometry" />
        </mxCell>
        <mxCell id="G8C2HKvousf60vdH2QP9-119" value="time_view" style="shape=partialRectangle;connectable=0;fillColor=none;top=0;left=0;bottom=0;right=0;align=left;spacingLeft=6;overflow=hidden;" vertex="1" parent="G8C2HKvousf60vdH2QP9-117">
          <mxGeometry x="30" width="150" height="30" as="geometry" />
        </mxCell>
        <mxCell id="G8C2HKvousf60vdH2QP9-123" value="" style="shape=partialRectangle;collapsible=0;dropTarget=0;pointerEvents=0;fillColor=none;top=0;left=0;bottom=0;right=0;points=[[0,0.5],[1,0.5]];portConstraint=eastwest;" vertex="1" parent="G8C2HKvousf60vdH2QP9-107">
          <mxGeometry y="150" width="180" height="30" as="geometry" />
        </mxCell>
        <mxCell id="G8C2HKvousf60vdH2QP9-124" value="" style="shape=partialRectangle;connectable=0;fillColor=none;top=0;left=0;bottom=0;right=0;editable=1;overflow=hidden;" vertex="1" parent="G8C2HKvousf60vdH2QP9-123">
          <mxGeometry width="30" height="30" as="geometry" />
        </mxCell>
        <mxCell id="G8C2HKvousf60vdH2QP9-125" value="comment" style="shape=partialRectangle;connectable=0;fillColor=none;top=0;left=0;bottom=0;right=0;align=left;spacingLeft=6;overflow=hidden;" vertex="1" parent="G8C2HKvousf60vdH2QP9-123">
          <mxGeometry x="30" width="150" height="30" as="geometry" />
        </mxCell>
        <mxCell id="G8C2HKvousf60vdH2QP9-120" value="" style="edgeStyle=entityRelationEdgeStyle;fontSize=12;html=1;endArrow=ERzeroToMany;startArrow=ERmandOne;endSize=10;startSize=10;" edge="1" parent="1" source="G8C2HKvousf60vdH2QP9-6" target="G8C2HKvousf60vdH2QP9-114">
          <mxGeometry width="100" height="100" relative="1" as="geometry">
            <mxPoint x="730" y="560" as="sourcePoint" />
            <mxPoint x="950" y="695" as="targetPoint" />
          </mxGeometry>
        </mxCell>
        <mxCell id="G8C2HKvousf60vdH2QP9-121" value="" style="edgeStyle=entityRelationEdgeStyle;fontSize=12;html=1;endArrow=ERzeroToMany;startArrow=ERmandOne;endSize=10;startSize=10;" edge="1" parent="1" source="G8C2HKvousf60vdH2QP9-48" target="G8C2HKvousf60vdH2QP9-111">
          <mxGeometry width="100" height="100" relative="1" as="geometry">
            <mxPoint x="710" y="630" as="sourcePoint" />
            <mxPoint x="930" y="765" as="targetPoint" />
          </mxGeometry>
        </mxCell>
      </root>
    </mxGraphModel>
  </diagram>
</mxfile>
